<mxfile host="Electron" modified="2023-09-18T08:39:55.680Z" agent="Mozilla/5.0 (Windows NT 10.0; Win64; x64) AppleWebKit/537.36 (KHTML, like Gecko) draw.io/21.7.5 Chrome/114.0.5735.289 Electron/25.8.1 Safari/537.36" etag="gQqeWH0oeq98a_SiuPkG" version="21.7.5" type="device">
  <diagram id="C5RBs43oDa-KdzZeNtuy" name="Page-1">
    <mxGraphModel dx="1120" dy="566" grid="1" gridSize="10" guides="1" tooltips="1" connect="1" arrows="1" fold="1" page="1" pageScale="1" pageWidth="827" pageHeight="1169" math="0" shadow="0">
      <root>
        <mxCell id="WIyWlLk6GJQsqaUBKTNV-0" />
        <mxCell id="WIyWlLk6GJQsqaUBKTNV-1" parent="WIyWlLk6GJQsqaUBKTNV-0" />
        <mxCell id="slVKkGLLK318c9aetP4t-0" value="Start" style="ellipse;whiteSpace=wrap;html=1;" vertex="1" parent="WIyWlLk6GJQsqaUBKTNV-1">
          <mxGeometry x="354" y="20" width="120" height="80" as="geometry" />
        </mxCell>
        <mxCell id="slVKkGLLK318c9aetP4t-1" value="" style="endArrow=classic;html=1;rounded=0;" edge="1" parent="WIyWlLk6GJQsqaUBKTNV-1">
          <mxGeometry width="50" height="50" relative="1" as="geometry">
            <mxPoint x="410" y="100" as="sourcePoint" />
            <mxPoint x="410" y="140" as="targetPoint" />
          </mxGeometry>
        </mxCell>
        <mxCell id="slVKkGLLK318c9aetP4t-2" value="int harga, jumlah, jmlHalaman&lt;br&gt;double dis, total, bayar, jmlDis&lt;br&gt;String merkBuku" style="shape=hexagon;perimeter=hexagonPerimeter2;whiteSpace=wrap;html=1;fixedSize=1;" vertex="1" parent="WIyWlLk6GJQsqaUBKTNV-1">
          <mxGeometry x="336" y="140" width="156" height="80" as="geometry" />
        </mxCell>
        <mxCell id="slVKkGLLK318c9aetP4t-6" value="" style="endArrow=classic;html=1;rounded=0;" edge="1" parent="WIyWlLk6GJQsqaUBKTNV-1">
          <mxGeometry width="50" height="50" relative="1" as="geometry">
            <mxPoint x="413" y="220" as="sourcePoint" />
            <mxPoint x="413" y="260" as="targetPoint" />
          </mxGeometry>
        </mxCell>
        <mxCell id="slVKkGLLK318c9aetP4t-7" value="harga, jumlah, dis, merkBuku, jmlHalaman" style="shape=parallelogram;perimeter=parallelogramPerimeter;whiteSpace=wrap;html=1;fixedSize=1;" vertex="1" parent="WIyWlLk6GJQsqaUBKTNV-1">
          <mxGeometry x="314" y="260" width="200" height="70" as="geometry" />
        </mxCell>
        <mxCell id="slVKkGLLK318c9aetP4t-8" value="" style="endArrow=classic;html=1;rounded=0;" edge="1" parent="WIyWlLk6GJQsqaUBKTNV-1">
          <mxGeometry width="50" height="50" relative="1" as="geometry">
            <mxPoint x="413" y="330" as="sourcePoint" />
            <mxPoint x="413" y="370" as="targetPoint" />
          </mxGeometry>
        </mxCell>
        <mxCell id="slVKkGLLK318c9aetP4t-9" value="total = harga*jumlah" style="rounded=0;whiteSpace=wrap;html=1;" vertex="1" parent="WIyWlLk6GJQsqaUBKTNV-1">
          <mxGeometry x="329.5" y="370" width="169" height="60" as="geometry" />
        </mxCell>
        <mxCell id="slVKkGLLK318c9aetP4t-10" value="" style="endArrow=classic;html=1;rounded=0;" edge="1" parent="WIyWlLk6GJQsqaUBKTNV-1">
          <mxGeometry width="50" height="50" relative="1" as="geometry">
            <mxPoint x="414" y="430" as="sourcePoint" />
            <mxPoint x="414" y="470" as="targetPoint" />
          </mxGeometry>
        </mxCell>
        <mxCell id="slVKkGLLK318c9aetP4t-11" value="bayar = total-jmlDis" style="rounded=0;whiteSpace=wrap;html=1;" vertex="1" parent="WIyWlLk6GJQsqaUBKTNV-1">
          <mxGeometry x="331" y="470" width="166" height="60" as="geometry" />
        </mxCell>
        <mxCell id="slVKkGLLK318c9aetP4t-12" value="" style="endArrow=classic;html=1;rounded=0;" edge="1" parent="WIyWlLk6GJQsqaUBKTNV-1">
          <mxGeometry width="50" height="50" relative="1" as="geometry">
            <mxPoint x="413" y="530" as="sourcePoint" />
            <mxPoint x="413" y="570" as="targetPoint" />
          </mxGeometry>
        </mxCell>
        <mxCell id="slVKkGLLK318c9aetP4t-13" value="jmlDis, bayar, merkBuku, jmlHalaman" style="shape=parallelogram;perimeter=parallelogramPerimeter;whiteSpace=wrap;html=1;fixedSize=1;" vertex="1" parent="WIyWlLk6GJQsqaUBKTNV-1">
          <mxGeometry x="314" y="570" width="200" height="70" as="geometry" />
        </mxCell>
        <mxCell id="slVKkGLLK318c9aetP4t-14" value="" style="endArrow=classic;html=1;rounded=0;" edge="1" parent="WIyWlLk6GJQsqaUBKTNV-1">
          <mxGeometry width="50" height="50" relative="1" as="geometry">
            <mxPoint x="413" y="640" as="sourcePoint" />
            <mxPoint x="413" y="680" as="targetPoint" />
          </mxGeometry>
        </mxCell>
        <mxCell id="slVKkGLLK318c9aetP4t-15" value="End" style="ellipse;whiteSpace=wrap;html=1;" vertex="1" parent="WIyWlLk6GJQsqaUBKTNV-1">
          <mxGeometry x="354" y="680" width="120" height="80" as="geometry" />
        </mxCell>
      </root>
    </mxGraphModel>
  </diagram>
</mxfile>
